<?xml version="1.0" encoding="UTF-8" standalone="no"?>
<svg
   id="Calque_1"
   data-name="Calque 1"
   viewBox="0 0 320.32001 340.98"
   version="1.1"
   sodipodi:docname="Logo-institutionnel-couleur-Uonly.svg"
   inkscape:version="1.4.3 (unknown)"
   width="320.32001"
   height="340.98001"
   inkscape:export-filename="Logo-institutionnel-couleur-Uonly.png"
   inkscape:export-xdpi="300.008"
   inkscape:export-ydpi="300.008"
   xmlns:inkscape="http://www.inkscape.org/namespaces/inkscape"
   xmlns:sodipodi="http://sodipodi.sourceforge.net/DTD/sodipodi-0.dtd"
   xmlns="http://www.w3.org/2000/svg"
   xmlns:svg="http://www.w3.org/2000/svg">
  <sodipodi:namedview
     id="namedview20"
     pagecolor="#ffffff"
     bordercolor="#666666"
     borderopacity="1.0"
     inkscape:showpageshadow="2"
     inkscape:pageopacity="0.0"
     inkscape:pagecheckerboard="0"
     inkscape:deskcolor="#d1d1d1"
     inkscape:zoom="0.71430989"
     inkscape:cx="746.17474"
     inkscape:cy="369.58749"
     inkscape:window-width="2544"
     inkscape:window-height="1344"
     inkscape:window-x="83"
     inkscape:window-y="58"
     inkscape:window-maximized="0"
     inkscape:current-layer="g20"
     showgrid="false" />
  <defs
     id="defs1">
    <style
       id="style1">
      .cls-1 {
        fill: #e93328;
      }

      .cls-2 {
        fill: #611313;
      }
    </style>
  </defs>
  <g
     id="g20">
    <g
       id="g1">
      <path
         class="cls-2"
         d="M 320.32,15.5 V 0 H 209.24 v 15.5 h 33.58 V 124 c 20.67,0 43.92,-18.08 43.92,-49.08 V 15.5 Z"
         id="path19" />
      <path
         class="cls-1"
         d="m 286.74,170.49 h -43.92 v 18.08 c 0,90.96 -10.49,115.36 -31,134.33 -1.87,1.73 -0.57,2.77 1.03,2.28 39.34,-12.09 73.88,-37.74 73.88,-123.69 v -31 z M 108.5,217.9 V 0 H 0 v 201.49 c 0,104.67 51.67,139.49 136.91,139.49 23.25,0 54.47,-7.34 59.41,-10.33 0.99,-0.6 1.53,-1.23 1.34,-1.79 -0.17,-0.51 -0.77,-0.8 -2.3,-0.8 -22.06,-0.05 -86.87,-13.15 -86.87,-110.16"
         id="path20" />
    </g>
  </g>
</svg>
